<mxfile host="Electron" modified="2024-12-08T18:32:37.527Z" agent="Mozilla/5.0 (Windows NT 10.0; Win64; x64) AppleWebKit/537.36 (KHTML, like Gecko) draw.io/22.0.2 Chrome/114.0.5735.289 Electron/25.8.4 Safari/537.36" etag="k61ryy70me8fSjI_QHO5" version="22.0.2" type="device">
  <diagram name="Page-1" id="I-TEWbiV20VC0LEYy6zt">
    <mxGraphModel dx="1131" dy="1697" grid="1" gridSize="10" guides="1" tooltips="1" connect="1" arrows="1" fold="1" page="1" pageScale="1" pageWidth="850" pageHeight="1100" background="#ffffff" math="0" shadow="0">
      <root>
        <mxCell id="0" />
        <mxCell id="1" parent="0" />
        <mxCell id="0u1-Wv5XJSrGBWT755lo-1" value="" style="ellipse;html=1;shape=startState;fillColor=#000000;strokeColor=#000000;fontColor=#000000;" parent="1" vertex="1">
          <mxGeometry x="345" y="60" width="30" height="30" as="geometry" />
        </mxCell>
        <mxCell id="0u1-Wv5XJSrGBWT755lo-2" value="" style="edgeStyle=orthogonalEdgeStyle;html=1;verticalAlign=bottom;endArrow=open;endSize=8;strokeColor=#000000;rounded=0;exitX=0.5;exitY=1;exitDx=0;exitDy=0;fontColor=#000000;entryX=0.5;entryY=0;entryDx=0;entryDy=0;" parent="1" source="0u1-Wv5XJSrGBWT755lo-1" target="_EtV7lXGeAFz6VLGQdi6-1" edge="1">
          <mxGeometry relative="1" as="geometry">
            <mxPoint x="185" y="170" as="targetPoint" />
            <mxPoint x="315" y="260" as="sourcePoint" />
            <Array as="points" />
          </mxGeometry>
        </mxCell>
        <mxCell id="0u1-Wv5XJSrGBWT755lo-3" value="" style="rhombus;whiteSpace=wrap;html=1;fontColor=#000000;fillColor=none;strokeColor=#000000;" parent="1" vertex="1">
          <mxGeometry x="335" y="350" width="50" height="50" as="geometry" />
        </mxCell>
        <mxCell id="0u1-Wv5XJSrGBWT755lo-5" value="Display Mission Information" style="rounded=1;whiteSpace=wrap;html=1;arcSize=40;fontColor=#000000;fillColor=none;strokeColor=#000000;" parent="1" vertex="1">
          <mxGeometry x="300" y="270" width="120" height="40" as="geometry" />
        </mxCell>
        <mxCell id="0u1-Wv5XJSrGBWT755lo-7" value="" style="edgeStyle=orthogonalEdgeStyle;html=1;verticalAlign=bottom;endArrow=open;endSize=8;strokeColor=#000000;rounded=0;exitX=0.5;exitY=1;exitDx=0;exitDy=0;entryX=0.5;entryY=0;entryDx=0;entryDy=0;fontColor=#000000;" parent="1" source="0u1-Wv5XJSrGBWT755lo-5" target="0u1-Wv5XJSrGBWT755lo-3" edge="1">
          <mxGeometry relative="1" as="geometry">
            <mxPoint x="320" y="410" as="targetPoint" />
            <mxPoint x="320" y="340" as="sourcePoint" />
            <Array as="points" />
          </mxGeometry>
        </mxCell>
        <mxCell id="0u1-Wv5XJSrGBWT755lo-10" value="[interaction key pressed]" style="edgeStyle=orthogonalEdgeStyle;html=1;align=left;verticalAlign=bottom;endArrow=open;endSize=8;strokeColor=#000000;rounded=0;exitX=0.5;exitY=1;exitDx=0;exitDy=0;labelBackgroundColor=#ffffff;fontColor=#000000;entryX=0.5;entryY=0;entryDx=0;entryDy=0;" parent="1" source="0u1-Wv5XJSrGBWT755lo-3" edge="1" target="MWUEK_S4w65wgbDQnt0B-1">
          <mxGeometry x="-0.5789" y="-30" relative="1" as="geometry">
            <mxPoint x="435" y="486" as="targetPoint" />
            <Array as="points">
              <mxPoint x="360" y="410" />
            </Array>
            <mxPoint as="offset" />
            <mxPoint x="310" y="465" as="sourcePoint" />
          </mxGeometry>
        </mxCell>
        <mxCell id="-wyM7qbXEckzo0PAQ3Ja-1" value="[invalid key pressed]" style="edgeStyle=orthogonalEdgeStyle;html=1;align=left;verticalAlign=bottom;endArrow=open;endSize=8;strokeColor=#000000;rounded=0;exitX=0;exitY=0.5;exitDx=0;exitDy=0;labelBackgroundColor=#ffffff;fontColor=#000000;entryX=0;entryY=0.5;entryDx=0;entryDy=0;" parent="1" source="0u1-Wv5XJSrGBWT755lo-3" target="_EtV7lXGeAFz6VLGQdi6-1" edge="1">
          <mxGeometry x="0.1176" y="55" relative="1" as="geometry">
            <mxPoint x="185" y="160" as="targetPoint" />
            <Array as="points">
              <mxPoint x="185" y="375" />
              <mxPoint x="185" y="165" />
            </Array>
            <mxPoint as="offset" />
            <mxPoint x="230" y="420" as="sourcePoint" />
          </mxGeometry>
        </mxCell>
        <mxCell id="_EtV7lXGeAFz6VLGQdi6-1" value="" style="rhombus;whiteSpace=wrap;html=1;fontColor=#000000;fillColor=none;strokeColor=#000000;" parent="1" vertex="1">
          <mxGeometry x="335" y="140" width="50" height="50" as="geometry" />
        </mxCell>
        <mxCell id="_EtV7lXGeAFz6VLGQdi6-3" value="[player stands on mission marker]" style="edgeStyle=orthogonalEdgeStyle;html=1;align=left;verticalAlign=bottom;endArrow=open;endSize=8;strokeColor=#000000;rounded=0;exitX=0.5;exitY=1;exitDx=0;exitDy=0;labelBackgroundColor=#ffffff;fontColor=#000000;entryX=0.5;entryY=0;entryDx=0;entryDy=0;" parent="1" source="_EtV7lXGeAFz6VLGQdi6-1" target="0u1-Wv5XJSrGBWT755lo-5" edge="1">
          <mxGeometry x="0.25" y="-80" relative="1" as="geometry">
            <mxPoint x="185" y="265" as="targetPoint" />
            <Array as="points">
              <mxPoint x="360" y="230" />
              <mxPoint x="360" y="230" />
            </Array>
            <mxPoint as="offset" />
            <mxPoint x="360" y="260" as="sourcePoint" />
          </mxGeometry>
        </mxCell>
        <mxCell id="_EtV7lXGeAFz6VLGQdi6-4" value="" style="ellipse;html=1;shape=endState;fillColor=#000000;strokeColor=#000000;" parent="1" vertex="1">
          <mxGeometry x="620" y="150" width="30" height="30" as="geometry" />
        </mxCell>
        <mxCell id="_EtV7lXGeAFz6VLGQdi6-5" value="[player not on mission marker]" style="edgeStyle=orthogonalEdgeStyle;html=1;align=left;verticalAlign=bottom;endArrow=open;endSize=8;strokeColor=#000000;rounded=0;exitX=1;exitY=0.5;exitDx=0;exitDy=0;labelBackgroundColor=#ffffff;fontColor=#000000;entryX=0;entryY=0.5;entryDx=0;entryDy=0;fontSize=11;spacingBottom=-3;" parent="1" source="_EtV7lXGeAFz6VLGQdi6-1" target="_EtV7lXGeAFz6VLGQdi6-4" edge="1">
          <mxGeometry x="-0.617" y="-5" relative="1" as="geometry">
            <mxPoint x="500" y="260" as="targetPoint" />
            <Array as="points">
              <mxPoint x="600" y="165" />
              <mxPoint x="600" y="165" />
            </Array>
            <mxPoint as="offset" />
            <mxPoint x="500" y="180" as="sourcePoint" />
          </mxGeometry>
        </mxCell>
        <mxCell id="_EtV7lXGeAFz6VLGQdi6-7" value="" style="html=1;points=[];perimeter=orthogonalPerimeter;fillColor=strokeColor;strokeColor=#000000;rotation=90;" parent="1" vertex="1">
          <mxGeometry x="435" y="490" width="5" height="187.5" as="geometry" />
        </mxCell>
        <mxCell id="_EtV7lXGeAFz6VLGQdi6-8" value="" style="edgeStyle=orthogonalEdgeStyle;html=1;align=left;verticalAlign=bottom;endArrow=open;endSize=8;strokeColor=#000000;rounded=0;exitX=0.5;exitY=0.947;exitDx=0;exitDy=0;labelBackgroundColor=#ffffff;fontColor=#000000;exitPerimeter=0;entryX=0.5;entryY=0;entryDx=0;entryDy=0;" parent="1" source="_EtV7lXGeAFz6VLGQdi6-7" target="_EtV7lXGeAFz6VLGQdi6-9" edge="1">
          <mxGeometry x="0.5" y="-60" relative="1" as="geometry">
            <mxPoint x="354" y="635" as="targetPoint" />
            <Array as="points">
              <mxPoint x="354" y="605" />
              <mxPoint x="354" y="605" />
            </Array>
            <mxPoint as="offset" />
            <mxPoint x="335" y="615" as="sourcePoint" />
          </mxGeometry>
        </mxCell>
        <mxCell id="_EtV7lXGeAFz6VLGQdi6-9" value="Play Mission Start Sound" style="rounded=1;whiteSpace=wrap;html=1;arcSize=40;fontColor=#000000;fillColor=none;strokeColor=#000000;" parent="1" vertex="1">
          <mxGeometry x="294" y="645" width="120" height="40" as="geometry" />
        </mxCell>
        <mxCell id="_EtV7lXGeAFz6VLGQdi6-10" value="Display Mission Title" style="rounded=1;whiteSpace=wrap;html=1;arcSize=40;fontColor=#000000;fillColor=none;strokeColor=#000000;" parent="1" vertex="1">
          <mxGeometry x="459" y="645" width="120" height="40" as="geometry" />
        </mxCell>
        <mxCell id="_EtV7lXGeAFz6VLGQdi6-11" value="" style="edgeStyle=orthogonalEdgeStyle;html=1;align=left;verticalAlign=bottom;endArrow=open;endSize=8;strokeColor=#000000;rounded=0;exitX=1.198;exitY=0.066;exitDx=0;exitDy=0;labelBackgroundColor=#ffffff;fontColor=#000000;exitPerimeter=0;entryX=0.5;entryY=0;entryDx=0;entryDy=0;" parent="1" source="_EtV7lXGeAFz6VLGQdi6-7" target="_EtV7lXGeAFz6VLGQdi6-10" edge="1">
          <mxGeometry x="0.5" y="-60" relative="1" as="geometry">
            <mxPoint x="550" y="615" as="targetPoint" />
            <Array as="points" />
            <mxPoint as="offset" />
            <mxPoint x="510" y="594" as="sourcePoint" />
          </mxGeometry>
        </mxCell>
        <mxCell id="_EtV7lXGeAFz6VLGQdi6-12" value="" style="html=1;points=[];perimeter=orthogonalPerimeter;fillColor=strokeColor;strokeColor=#000000;rotation=90;" parent="1" vertex="1">
          <mxGeometry x="440" y="635" width="5" height="187.5" as="geometry" />
        </mxCell>
        <mxCell id="_EtV7lXGeAFz6VLGQdi6-13" value="" style="edgeStyle=orthogonalEdgeStyle;html=1;align=left;verticalAlign=bottom;endArrow=open;endSize=8;strokeColor=#000000;rounded=0;exitX=0.5;exitY=1;exitDx=0;exitDy=0;labelBackgroundColor=#ffffff;fontColor=#000000;entryX=-0.25;entryY=0.972;entryDx=0;entryDy=0;entryPerimeter=0;" parent="1" source="_EtV7lXGeAFz6VLGQdi6-9" target="_EtV7lXGeAFz6VLGQdi6-12" edge="1">
          <mxGeometry x="0.5" y="-60" relative="1" as="geometry">
            <mxPoint x="354" y="715" as="targetPoint" />
            <Array as="points" />
            <mxPoint as="offset" />
            <mxPoint x="364" y="534" as="sourcePoint" />
          </mxGeometry>
        </mxCell>
        <mxCell id="_EtV7lXGeAFz6VLGQdi6-14" value="" style="edgeStyle=orthogonalEdgeStyle;html=1;align=left;verticalAlign=bottom;endArrow=open;endSize=8;strokeColor=#000000;rounded=0;exitX=0.5;exitY=1;exitDx=0;exitDy=0;labelBackgroundColor=#ffffff;fontColor=#000000;" parent="1" source="_EtV7lXGeAFz6VLGQdi6-10" edge="1">
          <mxGeometry x="0.5" y="-60" relative="1" as="geometry">
            <mxPoint x="519" y="725" as="targetPoint" />
            <Array as="points">
              <mxPoint x="519" y="715" />
              <mxPoint x="519" y="715" />
            </Array>
            <mxPoint as="offset" />
            <mxPoint x="364" y="695" as="sourcePoint" />
          </mxGeometry>
        </mxCell>
        <mxCell id="_EtV7lXGeAFz6VLGQdi6-15" value="Update Mission Information in HUD" style="rounded=1;whiteSpace=wrap;html=1;arcSize=40;fontColor=#000000;fillColor=none;strokeColor=#000000;" parent="1" vertex="1">
          <mxGeometry x="377.5" y="760" width="120" height="40" as="geometry" />
        </mxCell>
        <mxCell id="_EtV7lXGeAFz6VLGQdi6-16" value="&lt;br&gt;" style="edgeStyle=orthogonalEdgeStyle;html=1;align=left;verticalAlign=bottom;endArrow=open;endSize=8;strokeColor=#000000;rounded=0;labelBackgroundColor=#ffffff;fontColor=#000000;entryX=0.5;entryY=0;entryDx=0;entryDy=0;exitX=0.525;exitY=0.527;exitDx=0;exitDy=0;exitPerimeter=0;" parent="1" source="_EtV7lXGeAFz6VLGQdi6-12" target="_EtV7lXGeAFz6VLGQdi6-15" edge="1">
          <mxGeometry x="0.5" y="-60" relative="1" as="geometry">
            <mxPoint x="320" y="866" as="targetPoint" />
            <Array as="points">
              <mxPoint x="437" y="755" />
            </Array>
            <mxPoint as="offset" />
            <mxPoint x="438" y="725" as="sourcePoint" />
          </mxGeometry>
        </mxCell>
        <mxCell id="_EtV7lXGeAFz6VLGQdi6-17" value="Start Mission" style="rounded=1;whiteSpace=wrap;html=1;arcSize=40;fontColor=#000000;fillColor=none;strokeColor=#000000;" parent="1" vertex="1">
          <mxGeometry x="377.5" y="830" width="120" height="40" as="geometry" />
        </mxCell>
        <mxCell id="_EtV7lXGeAFz6VLGQdi6-19" value="" style="edgeStyle=orthogonalEdgeStyle;html=1;verticalAlign=bottom;endArrow=open;endSize=8;strokeColor=#000000;rounded=0;exitX=0.5;exitY=1;exitDx=0;exitDy=0;entryX=0.5;entryY=0;entryDx=0;entryDy=0;fontColor=#000000;" parent="1" source="_EtV7lXGeAFz6VLGQdi6-15" target="_EtV7lXGeAFz6VLGQdi6-17" edge="1">
          <mxGeometry relative="1" as="geometry">
            <mxPoint x="293.62" y="748.75" as="targetPoint" />
            <mxPoint x="293.62" y="708.75" as="sourcePoint" />
            <Array as="points" />
          </mxGeometry>
        </mxCell>
        <mxCell id="_EtV7lXGeAFz6VLGQdi6-20" value="" style="rhombus;whiteSpace=wrap;html=1;fontColor=#000000;fillColor=none;strokeColor=#000000;" parent="1" vertex="1">
          <mxGeometry x="412.5" y="990" width="50" height="50" as="geometry" />
        </mxCell>
        <mxCell id="_EtV7lXGeAFz6VLGQdi6-21" value="" style="edgeStyle=orthogonalEdgeStyle;html=1;verticalAlign=bottom;endArrow=open;endSize=8;strokeColor=#000000;rounded=0;exitX=0.5;exitY=1;exitDx=0;exitDy=0;entryX=0.5;entryY=0;entryDx=0;entryDy=0;fontColor=#000000;" parent="1" source="_EtV7lXGeAFz6VLGQdi6-17" target="MWUEK_S4w65wgbDQnt0B-11" edge="1">
          <mxGeometry relative="1" as="geometry">
            <mxPoint x="448" y="855" as="targetPoint" />
            <mxPoint x="448" y="825" as="sourcePoint" />
            <Array as="points" />
          </mxGeometry>
        </mxCell>
        <mxCell id="_EtV7lXGeAFz6VLGQdi6-22" value="[objective achieved]" style="edgeStyle=orthogonalEdgeStyle;html=1;align=left;verticalAlign=bottom;endArrow=open;endSize=8;strokeColor=#000000;rounded=0;exitX=1;exitY=0.5;exitDx=0;exitDy=0;labelBackgroundColor=#ffffff;fontColor=#000000;entryX=0.5;entryY=0;entryDx=0;entryDy=0;" parent="1" source="_EtV7lXGeAFz6VLGQdi6-20" edge="1" target="MWUEK_S4w65wgbDQnt0B-5">
          <mxGeometry x="-0.2784" y="-40" relative="1" as="geometry">
            <mxPoint x="600" y="1040" as="targetPoint" />
            <Array as="points">
              <mxPoint x="600" y="1015" />
              <mxPoint x="600" y="1120" />
            </Array>
            <mxPoint as="offset" />
            <mxPoint x="520" y="990" as="sourcePoint" />
          </mxGeometry>
        </mxCell>
        <mxCell id="_EtV7lXGeAFz6VLGQdi6-23" value="[failure triggered]" style="edgeStyle=orthogonalEdgeStyle;html=1;align=left;verticalAlign=bottom;endArrow=open;endSize=8;strokeColor=#000000;rounded=0;exitX=0;exitY=0.5;exitDx=0;exitDy=0;labelBackgroundColor=#ffffff;fontColor=#000000;entryX=0.5;entryY=0;entryDx=0;entryDy=0;" parent="1" source="_EtV7lXGeAFz6VLGQdi6-20" target="_EtV7lXGeAFz6VLGQdi6-24" edge="1">
          <mxGeometry x="0.5425" y="-40" relative="1" as="geometry">
            <mxPoint x="234" y="1090" as="targetPoint" />
            <Array as="points">
              <mxPoint x="230" y="1015" />
              <mxPoint x="230" y="1120" />
            </Array>
            <mxPoint as="offset" />
            <mxPoint x="311" y="1070" as="sourcePoint" />
          </mxGeometry>
        </mxCell>
        <mxCell id="_EtV7lXGeAFz6VLGQdi6-24" value="Display Failure Notifications" style="rounded=1;whiteSpace=wrap;html=1;arcSize=40;fontColor=#000000;fillColor=none;strokeColor=#000000;" parent="1" vertex="1">
          <mxGeometry x="171" y="1120" width="120" height="40" as="geometry" />
        </mxCell>
        <mxCell id="_EtV7lXGeAFz6VLGQdi6-25" value="Clear Mission Information from HUD" style="rounded=1;whiteSpace=wrap;html=1;arcSize=40;fontColor=#000000;fillColor=none;strokeColor=#000000;" parent="1" vertex="1">
          <mxGeometry x="168" y="1190" width="126" height="40" as="geometry" />
        </mxCell>
        <mxCell id="_EtV7lXGeAFz6VLGQdi6-26" value="" style="edgeStyle=orthogonalEdgeStyle;html=1;verticalAlign=bottom;endArrow=open;endSize=8;strokeColor=#000000;rounded=0;exitX=0.5;exitY=1;exitDx=0;exitDy=0;entryX=0.5;entryY=0;entryDx=0;entryDy=0;fontColor=#000000;" parent="1" source="_EtV7lXGeAFz6VLGQdi6-24" target="_EtV7lXGeAFz6VLGQdi6-25" edge="1">
          <mxGeometry relative="1" as="geometry">
            <mxPoint x="327" y="1200" as="targetPoint" />
            <mxPoint x="327" y="1160" as="sourcePoint" />
            <Array as="points" />
          </mxGeometry>
        </mxCell>
        <mxCell id="_EtV7lXGeAFz6VLGQdi6-27" value="Display Options" style="rounded=1;whiteSpace=wrap;html=1;arcSize=40;fontColor=#000000;fillColor=none;strokeColor=#000000;" parent="1" vertex="1">
          <mxGeometry x="168" y="1260" width="126" height="40" as="geometry" />
        </mxCell>
        <mxCell id="_EtV7lXGeAFz6VLGQdi6-28" value="" style="edgeStyle=orthogonalEdgeStyle;html=1;verticalAlign=bottom;endArrow=open;endSize=8;strokeColor=#000000;rounded=0;exitX=0.5;exitY=1;exitDx=0;exitDy=0;entryX=0.5;entryY=0;entryDx=0;entryDy=0;fontColor=#000000;" parent="1" source="_EtV7lXGeAFz6VLGQdi6-25" target="_EtV7lXGeAFz6VLGQdi6-27" edge="1">
          <mxGeometry relative="1" as="geometry">
            <mxPoint x="241" y="1200" as="targetPoint" />
            <mxPoint x="241" y="1170" as="sourcePoint" />
            <Array as="points" />
          </mxGeometry>
        </mxCell>
        <mxCell id="_EtV7lXGeAFz6VLGQdi6-29" value="" style="rhombus;whiteSpace=wrap;html=1;fontColor=#000000;fillColor=none;strokeColor=#000000;" parent="1" vertex="1">
          <mxGeometry x="206" y="1340" width="50" height="50" as="geometry" />
        </mxCell>
        <mxCell id="_EtV7lXGeAFz6VLGQdi6-30" value="" style="edgeStyle=orthogonalEdgeStyle;html=1;verticalAlign=bottom;endArrow=open;endSize=8;strokeColor=#000000;rounded=0;exitX=0.5;exitY=1;exitDx=0;exitDy=0;entryX=0.5;entryY=0;entryDx=0;entryDy=0;fontColor=#000000;" parent="1" source="_EtV7lXGeAFz6VLGQdi6-27" target="_EtV7lXGeAFz6VLGQdi6-29" edge="1">
          <mxGeometry relative="1" as="geometry">
            <mxPoint x="241" y="1270" as="targetPoint" />
            <mxPoint x="241" y="1240" as="sourcePoint" />
            <Array as="points" />
          </mxGeometry>
        </mxCell>
        <mxCell id="_EtV7lXGeAFz6VLGQdi6-31" value="[exit mission]" style="edgeStyle=orthogonalEdgeStyle;html=1;align=left;verticalAlign=bottom;endArrow=open;endSize=8;strokeColor=#000000;rounded=0;exitX=1;exitY=0.5;exitDx=0;exitDy=0;labelBackgroundColor=#ffffff;fontColor=#000000;entryX=0;entryY=0.5;entryDx=0;entryDy=0;spacingBottom=2;" parent="1" source="_EtV7lXGeAFz6VLGQdi6-29" edge="1" target="MWUEK_S4w65wgbDQnt0B-8">
          <mxGeometry x="-0.7517" y="-10" relative="1" as="geometry">
            <mxPoint x="320" y="1410" as="targetPoint" />
            <Array as="points" />
            <mxPoint as="offset" />
            <mxPoint x="256" y="1410" as="sourcePoint" />
          </mxGeometry>
        </mxCell>
        <mxCell id="_EtV7lXGeAFz6VLGQdi6-32" value="[retry mission]" style="edgeStyle=orthogonalEdgeStyle;html=1;align=left;verticalAlign=bottom;endArrow=open;endSize=8;strokeColor=#000000;rounded=0;exitX=0;exitY=0.5;exitDx=0;exitDy=0;labelBackgroundColor=#ffffff;fontColor=#000000;entryX=0;entryY=0.5;entryDx=0;entryDy=0;spacingBottom=-3;" parent="1" source="_EtV7lXGeAFz6VLGQdi6-29" edge="1" target="MWUEK_S4w65wgbDQnt0B-1">
          <mxGeometry x="-0.8571" y="5" relative="1" as="geometry">
            <mxPoint x="335" y="540" as="targetPoint" />
            <Array as="points">
              <mxPoint x="80" y="1365" />
              <mxPoint x="80" y="485" />
            </Array>
            <mxPoint as="offset" />
            <mxPoint x="206" y="1355" as="sourcePoint" />
          </mxGeometry>
        </mxCell>
        <mxCell id="MWUEK_S4w65wgbDQnt0B-1" value="" style="rhombus;whiteSpace=wrap;html=1;fontColor=#000000;fillColor=none;strokeColor=#000000;" vertex="1" parent="1">
          <mxGeometry x="417.5" y="460" width="50" height="50" as="geometry" />
        </mxCell>
        <mxCell id="MWUEK_S4w65wgbDQnt0B-3" value="" style="edgeStyle=orthogonalEdgeStyle;html=1;verticalAlign=bottom;endArrow=open;endSize=8;strokeColor=#000000;rounded=0;exitX=0.5;exitY=1;exitDx=0;exitDy=0;fontColor=#000000;entryX=-0.207;entryY=0.473;entryDx=0;entryDy=0;entryPerimeter=0;" edge="1" parent="1" source="MWUEK_S4w65wgbDQnt0B-1" target="_EtV7lXGeAFz6VLGQdi6-7">
          <mxGeometry relative="1" as="geometry">
            <mxPoint x="442" y="580" as="targetPoint" />
            <mxPoint x="410" y="510" as="sourcePoint" />
            <Array as="points" />
          </mxGeometry>
        </mxCell>
        <mxCell id="MWUEK_S4w65wgbDQnt0B-4" value="" style="ellipse;html=1;shape=endState;fillColor=#000000;strokeColor=#000000;" vertex="1" parent="1">
          <mxGeometry x="422.5" y="1435" width="30" height="30" as="geometry" />
        </mxCell>
        <mxCell id="MWUEK_S4w65wgbDQnt0B-5" value="Display Success Notification" style="rounded=1;whiteSpace=wrap;html=1;arcSize=40;fontColor=#000000;fillColor=none;strokeColor=#000000;" vertex="1" parent="1">
          <mxGeometry x="540" y="1120" width="120" height="40" as="geometry" />
        </mxCell>
        <mxCell id="MWUEK_S4w65wgbDQnt0B-6" value="Add Rewards To The User" style="rounded=1;whiteSpace=wrap;html=1;arcSize=40;fontColor=#000000;fillColor=none;strokeColor=#000000;" vertex="1" parent="1">
          <mxGeometry x="540" y="1190" width="120" height="40" as="geometry" />
        </mxCell>
        <mxCell id="MWUEK_S4w65wgbDQnt0B-7" value="" style="edgeStyle=orthogonalEdgeStyle;html=1;verticalAlign=bottom;endArrow=open;endSize=8;strokeColor=#000000;rounded=0;exitX=0.5;exitY=1;exitDx=0;exitDy=0;fontColor=#000000;entryX=0.5;entryY=0;entryDx=0;entryDy=0;" edge="1" parent="1" source="MWUEK_S4w65wgbDQnt0B-5" target="MWUEK_S4w65wgbDQnt0B-6">
          <mxGeometry relative="1" as="geometry">
            <mxPoint x="510" y="1195" as="targetPoint" />
            <mxPoint x="241" y="1240" as="sourcePoint" />
            <Array as="points" />
          </mxGeometry>
        </mxCell>
        <mxCell id="MWUEK_S4w65wgbDQnt0B-8" value="" style="rhombus;whiteSpace=wrap;html=1;fontColor=#000000;fillColor=none;strokeColor=#000000;" vertex="1" parent="1">
          <mxGeometry x="412.5" y="1340" width="50" height="50" as="geometry" />
        </mxCell>
        <mxCell id="MWUEK_S4w65wgbDQnt0B-9" value="" style="edgeStyle=orthogonalEdgeStyle;html=1;verticalAlign=bottom;endArrow=open;endSize=8;strokeColor=#000000;rounded=0;exitX=0.5;exitY=1;exitDx=0;exitDy=0;fontColor=#000000;entryX=1;entryY=0.5;entryDx=0;entryDy=0;" edge="1" parent="1" source="MWUEK_S4w65wgbDQnt0B-6" target="MWUEK_S4w65wgbDQnt0B-8">
          <mxGeometry relative="1" as="geometry">
            <mxPoint x="610" y="1200" as="targetPoint" />
            <mxPoint x="610" y="1170" as="sourcePoint" />
            <Array as="points" />
          </mxGeometry>
        </mxCell>
        <mxCell id="MWUEK_S4w65wgbDQnt0B-10" value="" style="edgeStyle=orthogonalEdgeStyle;html=1;verticalAlign=bottom;endArrow=open;endSize=8;strokeColor=#000000;rounded=0;exitX=0.5;exitY=1;exitDx=0;exitDy=0;fontColor=#000000;entryX=0.5;entryY=0;entryDx=0;entryDy=0;" edge="1" parent="1" source="MWUEK_S4w65wgbDQnt0B-8" target="MWUEK_S4w65wgbDQnt0B-4">
          <mxGeometry relative="1" as="geometry">
            <mxPoint x="473" y="1375" as="targetPoint" />
            <mxPoint x="610" y="1240" as="sourcePoint" />
            <Array as="points" />
          </mxGeometry>
        </mxCell>
        <mxCell id="MWUEK_S4w65wgbDQnt0B-11" value="Add Objective to Map" style="rounded=1;whiteSpace=wrap;html=1;arcSize=40;fontColor=#000000;fillColor=none;strokeColor=#000000;" vertex="1" parent="1">
          <mxGeometry x="377.5" y="910" width="120" height="40" as="geometry" />
        </mxCell>
        <mxCell id="MWUEK_S4w65wgbDQnt0B-12" value="" style="edgeStyle=orthogonalEdgeStyle;html=1;verticalAlign=bottom;endArrow=open;endSize=8;strokeColor=#000000;rounded=0;exitX=0.5;exitY=1;exitDx=0;exitDy=0;entryX=0.5;entryY=0;entryDx=0;entryDy=0;fontColor=#000000;" edge="1" parent="1" source="MWUEK_S4w65wgbDQnt0B-11" target="_EtV7lXGeAFz6VLGQdi6-20">
          <mxGeometry relative="1" as="geometry">
            <mxPoint x="448" y="895" as="targetPoint" />
            <mxPoint x="448" y="872" as="sourcePoint" />
            <Array as="points" />
          </mxGeometry>
        </mxCell>
      </root>
    </mxGraphModel>
  </diagram>
</mxfile>
